<?xml version="1.0" encoding="utf-8"?>
<!-- Generator: Adobe Illustrator 18.0.0, SVG Export Plug-In . SVG Version: 6.00 Build 0)  -->
<!DOCTYPE svg PUBLIC "-//W3C//DTD SVG 1.1//EN" "http://www.w3.org/Graphics/SVG/1.1/DTD/svg11.dtd">
<svg version="1.1" id="Layer_1" xmlns="http://www.w3.org/2000/svg" xmlns:xlink="http://www.w3.org/1999/xlink" x="0px" y="0px"
	 width="34px" height="32px" viewBox="0 0 34 32" enable-background="new 0 0 34 32" xml:space="preserve">
<circle fill="#34495E" cx="12.5" cy="25.6" r="1.9"/>
<circle fill="#34495E" cx="24" cy="25.6" r="1.9"/>
<path fill="#34495E" d="M28.4,8.5l-1.3,8.7c-0.1,0.6-0.6,0.8-1.3,0.8H11.4l0.2,2h13c0.7,0,1.3,0.3,1.3,1c0,0.7-0.6,1-1.3,1H10.6
	c-0.2,0-0.3,0.2-0.5,0.1c-0.1,0-0.1,0-0.1,0c-0.1,0-0.2,0-0.2-0.1c0,0-0.1-0.1-0.1-0.1c-0.1-0.1-0.1-0.1-0.2-0.2
	c0-0.1,0-0.1-0.1-0.2c0-0.1,0-0.1-0.1-0.2L6.9,7H5.1C4.4,7,3.9,6.7,3.9,6s0.6-1,1.3-1H8c0.6,0,1.2,0.2,1.3,0.8L9.5,7h17.7
	c0.4,0,0.7,0.2,1,0.5C28.4,7.7,28.5,8.1,28.4,8.5z"/>
<polygon fill="#FFFFFF" points="11,16 14,16 14,14 10.6,14 "/>
<polygon fill="#FFFFFF" points="21,12 25.3,12 25.7,10 21,10 "/>
<path fill="#FFFFFF" d="M10.6,12H14v-2H9.9C9.9,10,10.5,12,10.6,12z"/>
<polygon fill="#FFFFFF" points="21,16 24.8,16 25.2,14 21,14 "/>
<rect x="15" y="14" fill="#FFFFFF" width="5" height="2"/>
<rect x="15" y="10" fill="#FFFFFF" width="5" height="2"/>
</svg>
