<?xml version="1.0" encoding="utf-8"?>
<!-- Generator: Adobe Illustrator 18.0.0, SVG Export Plug-In . SVG Version: 6.00 Build 0)  -->
<!DOCTYPE svg PUBLIC "-//W3C//DTD SVG 1.1//EN" "http://www.w3.org/Graphics/SVG/1.1/DTD/svg11.dtd">
<svg version="1.1" id="Layer_1" xmlns="http://www.w3.org/2000/svg" xmlns:xlink="http://www.w3.org/1999/xlink" x="0px" y="0px"
	 width="38px" height="38px" viewBox="0 0 38 38" enable-background="new 0 0 38 38" xml:space="preserve">
<g>
	<g>
		<circle fill="#FFFFFF" cx="19" cy="19" r="18"/>
		<path fill="#7F8C8D" d="M19,38C8.5,38,0,29.5,0,19S8.5,0,19,0s19,8.5,19,19S29.5,38,19,38z M19,2C9.6,2,2,9.6,2,19s7.6,17,17,17
			s17-7.6,17-17S28.4,2,19,2z"/>
	</g>
	<g>
		<polyline fill="#FFFFFF" points="7.5,23 19,11.5 30.5,23 		"/>
		<polygon fill="#7F8C8D" points="29.8,23.7 19,12.9 8.2,23.7 6.8,22.3 19,10.1 31.2,22.3 		"/>
	</g>
</g>
</svg>
