<?xml version="1.0" encoding="utf-8"?>
<!-- Generator: Adobe Illustrator 18.0.0, SVG Export Plug-In . SVG Version: 6.00 Build 0)  -->
<!DOCTYPE svg PUBLIC "-//W3C//DTD SVG 1.1//EN" "http://www.w3.org/Graphics/SVG/1.1/DTD/svg11.dtd">
<svg version="1.1" id="Layer_1" xmlns="http://www.w3.org/2000/svg" xmlns:xlink="http://www.w3.org/1999/xlink" x="0px" y="0px"
	 width="174px" height="50px" viewBox="0 0 174 50" enable-background="new 0 0 174 50" xml:space="preserve">
<g>
	<path fill="#FBC926" d="M135.3,8.8c-2.1,0-3.4,0.6-4.2,1.8c-0.8,1.2-1.1,3-1.1,5.3v17.9c0,2.4,0.3,4.2,1.1,5.5
		c0.8,1.2,2.2,1.9,4.2,1.9c2.1,0,3.6-0.6,4.4-1.9c0.8-1.2,1.3-3.1,1.3-5.5V15.9c0-2.4-0.5-4.2-1.3-5.3
		C138.9,9.4,137.3,8.8,135.3,8.8z"/>
	<path fill="#FBC926" d="M101,0v50h73V0H101z M122,46h-16V4h6v37h10V46z M147,32.3c0,2.1-0.4,4-0.8,5.6c-0.4,1.6-1.1,3.1-2,4.3
		c-0.9,1.2-2.1,2.1-3.6,2.8c-1.5,0.6-3.3,1-5.3,1c-2.1,0-3.8-0.3-5.3-0.9c-1.5-0.6-2.7-1.5-3.5-2.8c-0.9-1.2-1.5-2.6-1.9-4.3
		c-0.4-1.6-0.6-3.5-0.6-5.7V17.4c0-2.2,0.2-4,0.6-5.6c0.4-1.6,1-3,1.9-4.2c0.9-1.2,2-2.1,3.5-2.7c1.5-0.6,3.2-0.9,5.3-0.9
		c4,0,7.1,1.1,8.9,3.4c1.8,2.3,2.9,5.6,2.9,10V32.3z M169,10h-7v36h-6V10h-7V4h20V10z"/>
	<polygon fill="#FBC926" points="17,22 6,22 6,4 0,4 0,46 6,46 6,26 17,26 17,46 22,46 22,4 17,4 	"/>
	<path fill="#FBC926" d="M39,4c-2.1,0-3.8,0.3-5.3,0.9c-1.5,0.6-2.7,1.5-3.5,2.7c-0.9,1.2-1.3,2.6-1.7,4.2C28,13.4,28,15.2,28,17.4
		v14.9c0,2.2,0,4.1,0.4,5.7c0.4,1.6,0.9,3,1.8,4.3c0.9,1.2,2,2.1,3.5,2.8c1.5,0.6,3.2,0.9,5.3,0.9c2,0,3.8-0.3,5.3-1
		c1.5-0.6,2.6-1.6,3.5-2.8c0.9-1.2,1.4-2.6,1.8-4.3c0.4-1.6,0.5-3.5,0.5-5.6V17.4c0-4.3-0.7-7.7-2.5-10C45.7,5.1,43,4,39,4z
		 M49.3,20.9L49.3,20.9L49.3,20.9l0,0.1l0,0.1l0,0l0,0c-0.1,1.4-0.8,2.2-2.2,2.5c-0.1,0.6-0.3,1.3-0.5,1.9c-0.5,0.1-0.9,0.1-1.3,0.1
		c-0.2-1.4-0.9-1.9-1.9-2.1l-1.9,0.1l0.1,12c0.3,1,0.8,1.7,2.2,1.9c0,0.4,0,0.8,0,1.3c-0.6,0.2-1,0.4-1.6,0.5
		c-1.8-0.2-4.1,0-5.1,0.1c0,0,0,0,0,0c-1-0.1-1.5-0.3-2.1-0.5c-0.1-0.5-0.2-0.9-0.2-1.3c1.4-0.2,1.8-0.9,2.1-1.9l-0.2-12l-2,0
		c-1,0.3-1.7,0.8-1.9,2.2c-0.4,0-0.8,0-1.3,0c-0.2-0.6-0.2-1.2-0.4-1.9c-1.4-0.3-2.1-1.1-2.1-2.5v0l-0.2,0l-0.1-0.1l0-0.1l0,0l0,0
		c0.1-1.4,0.8-2.2,2.2-2.5c0.1-0.6,0.3-1.3,0.5-1.9c0.5-0.1,0.9-0.1,1.3-0.1c0.2,1.4,0.9,1.9,1.9,2.1l1.9-0.1l0-2.2
		c-0.3-1-0.8-1.7-2.2-1.9c0-0.4,0-0.8,0-1.3c0.6-0.2,1.2-0.2,1.9-0.3c0.3-1.4,1.1-2.1,2.5-2.1h0l0.1,0l0.1,0h0c1.4,0,2.2,0.6,2.5,2
		c0.6,0.1,1.3,0.2,1.9,0.4c0.1,0.5,0.1,0.8,0.1,1.2c-1.4,0.2-1.9,0.8-2.1,1.9l0.1,2.2l1.9,0c1-0.3,1.7-0.8,1.9-2.2
		c0.4,0,0.8,0,1.3,0c0.2,0.6,0.4,1.2,0.5,1.9C48.4,18.8,49.2,19.6,49.3,20.9z"/>
	<polygon fill="#FBC926" points="61,4 55,4 55,46 72,46 72,41 61,41 	"/>
	<polygon fill="#FBC926" points="81.6,24.6 75.7,4 69.9,4 79,32.3 79,46 85,46 85,32.3 93.4,4 87.5,4 	"/>
</g>
</svg>
